<svg xmlns="http://www.w3.org/2000/svg" viewBox="0 0 254.04 140.11">
<g id="Layer_2" data-name="Layer 2"><g id="Layer_1-2" data-name="Layer 1">
<path fill="#FFFFFF" d="M95.85,15.41V139.29H83.53V15a3.91,3.91,0,1,0-7.81,0V139.29H63.39V.82H75.72V6.57C77.36,2.88,80.44,0,86,0,92,0,95.85,4.52,95.85,15.41Z"/>
<path fill="#FFFFFF" d="M118.45,123.88c0,3.08,1.44,5.14,3.9,5.14s3.91-1.85,3.91-5.34V92.24h-3.91V80.94h16.23v42.12c0,10.89-5.75,17.05-16.23,17.05-9.86,0-16.23-5.75-16.23-17.05V18.9C106.12,7,111.05,0,122.56,0c12.53,0,16,6.57,16,18.49V55.26H126.26V16c0-2.46-1-4.93-3.91-4.93-2.67,0-3.9,2.47-3.9,4.93Z"/>
<path fill="#FFFFFF" d="M145.36.82h30.2V11.09h-9v128.2H154.2V11.09h-8.84Z"/>
<path fill="#FFFFFF" d="M254,15.41V139.29H241.71V15a3.9,3.9,0,1,0-7.8,0V139.29H221.58V.82h12.33V6.57C235.55,2.88,238.63,0,244.18,0,250.14,0,254,4.52,254,15.41Z"/>
<path fill="#FFFFFF" d="M184,.82h29.24V12.28H196v90.07h17.19v11.46H196v14h17.19v11.46H184Z"/>
<path fill="#FFFFFF" d="M26.56,0C7.73,0,0,14.92,0,26.84V139.29H13V112H40.79v27.32H53.12V26.43C53.12,14.51,47.07,0,26.56,0ZM40.79,101.08H13V25.31c0-4,4.39-13.79,13.89-13.79,10.23,0,13.88,9.71,13.88,13.79Z"/></g></g></svg>